<svg width="44" height="56" viewBox="0 0 44 56" fill="none" xmlns="http://www.w3.org/2000/svg">
<path d="M42.9183 9.32794L22.7514 0.161178C22.5151 0.0549335 22.2589 0 21.9997 0C21.7406 0 21.4844 0.0549335 21.2481 0.161178L1.0812 9.32794C0.759535 9.47253 0.486403 9.70682 0.294547 10.0027C0.102691 10.2987 0.00025458 10.6436 -0.000481257 10.9963V19.1914C-0.00476977 26.4738 1.95468 33.6227 5.67153 39.8852C9.38838 46.1477 14.7251 51.2921 21.1197 54.7767C21.3984 54.9376 21.7146 55.0223 22.0364 55.0223C22.3582 55.0223 22.6744 54.9376 22.9531 54.7767C29.334 51.2825 34.6559 46.1339 38.3595 39.8721C42.063 33.6102 44.0114 26.4664 44 19.1914V10.9963C43.9992 10.6436 43.8968 10.2987 43.7049 10.0027C43.5131 9.70682 43.2399 9.47253 42.9183 9.32794ZM40.3332 19.1914C40.3357 25.6429 38.6435 31.982 35.426 37.574C32.2085 43.166 27.5786 47.8148 21.9997 51.055C16.4209 47.8148 11.791 43.166 8.57349 37.574C5.356 31.982 3.66378 25.6429 3.66622 19.1914V12.1696L21.9997 3.84621L40.3332 12.1696V19.1914ZM20.1664 28.5781L27.1148 21.6114C27.46 21.2662 27.9282 21.0722 28.4165 21.0722C28.9047 21.0722 29.3729 21.2662 29.7181 21.6114C30.0634 21.9566 30.2573 22.4248 30.2573 22.9131C30.2573 23.4013 30.0634 23.8695 29.7181 24.2147L21.4681 32.4648C21.2976 32.6367 21.0949 32.7731 20.8714 32.8661C20.648 32.9592 20.4084 33.0071 20.1664 33.0071C19.9244 33.0071 19.6847 32.9592 19.4613 32.8661C19.2379 32.7731 19.0351 32.6367 18.8647 32.4648L15.198 28.7981C14.8528 28.4529 14.6588 27.9847 14.6588 27.4964C14.6588 27.0082 14.8528 26.54 15.198 26.1948C15.5432 25.8495 16.0115 25.6556 16.4997 25.6556C16.9879 25.6556 17.4561 25.8495 17.8014 26.1948L20.1664 28.5781Z" fill="#989898"/>
</svg>
