<svg width="60" height="53" viewBox="0 0 60 53" fill="none" xmlns="http://www.w3.org/2000/svg">
<path d="M59.2701 26.7059C58.9288 26.507 58.5212 26.4484 58.1361 26.5429C57.751 26.6374 57.4194 26.8773 57.2136 27.2104L52.2507 35.328H40.5016C40.2231 35.328 39.95 35.4042 39.7131 35.5479C39.4761 35.6916 39.2846 35.8972 39.16 36.1417L36.5744 41.216H30.0026V21.4922C31.2903 21.6815 32.4894 22.2493 33.4418 23.1208C33.581 23.2575 33.7463 23.366 33.9283 23.4399C34.1102 23.5139 34.3052 23.552 34.5022 23.552C34.6992 23.552 34.8942 23.5139 35.0761 23.4399C35.2581 23.366 35.4234 23.2575 35.5626 23.1208C37.9647 20.7661 43.0385 20.7661 45.4406 23.1208C45.7219 23.3968 46.1033 23.552 46.501 23.552C46.6981 23.5525 46.8934 23.5144 47.0753 23.4399C47.3492 23.3284 47.5834 23.1397 47.7481 22.8977C47.9129 22.6556 48.0008 22.3711 48.0009 22.08C47.9932 17.2636 46.1364 12.627 42.8007 9.09423C39.465 5.5615 34.8953 3.39214 30.0026 3.01856V1.472C30.0026 1.0816 29.8446 0.707193 29.5633 0.431139C29.282 0.155086 28.9005 0 28.5027 0C28.1049 0 27.7234 0.155086 27.4422 0.431139C27.1609 0.707193 27.0029 1.0816 27.0029 1.472V3.01856C22.1101 3.39214 17.5404 5.5615 14.2047 9.09423C10.869 12.627 9.01227 17.2636 9.00454 22.08C9.00457 22.3711 9.09255 22.6557 9.25736 22.8977C9.42217 23.1398 9.6564 23.3284 9.93045 23.4398C10.2045 23.5512 10.506 23.5804 10.797 23.5236C11.0879 23.4668 11.3551 23.3266 11.5649 23.1208C13.967 20.7661 19.0407 20.7661 21.4429 23.1208C21.5821 23.2575 21.7474 23.366 21.9294 23.4399C22.1113 23.5139 22.3064 23.552 22.5033 23.552C22.7003 23.552 22.8953 23.5139 23.0772 23.4399C23.2592 23.366 23.4245 23.2575 23.5638 23.1208C24.5161 22.2493 25.7152 21.6816 27.0029 21.4922V41.216H7.50468C7.25778 41.2161 7.01471 41.2759 6.79702 41.3903C6.57934 41.5046 6.39378 41.6699 6.25679 41.8715L0.257351 50.7035C0.146569 50.8643 0.0692879 51.045 0.0299561 51.2353C-0.0093758 51.4255 -0.00998216 51.6215 0.0281731 51.812C0.0663283 52.0024 0.142492 52.1836 0.252278 52.3451C0.362064 52.5065 0.503305 52.6451 0.66787 52.7528C0.832436 52.8604 1.01708 52.9351 1.21116 52.9725C1.40525 53.0098 1.60495 53.0092 1.79877 52.9705C1.99259 52.9318 2.17669 52.8559 2.34049 52.7471C2.50429 52.6383 2.64455 52.4988 2.75319 52.3365L8.3071 44.16H27.0029V51.52C27.0029 51.9104 27.1609 52.2848 27.4422 52.5609C27.7234 52.8369 28.1049 52.992 28.5027 52.992C28.9005 52.992 29.282 52.8369 29.5633 52.5609C29.8446 52.2848 30.0026 51.9104 30.0026 51.52V44.16H48.6983L54.2525 52.3365C54.3612 52.4988 54.5014 52.6383 54.6652 52.7471C54.829 52.8559 55.0132 52.9318 55.207 52.9705C55.4008 53.0092 55.6005 53.0098 55.7946 52.9725C55.9887 52.9351 56.1733 52.8604 56.3379 52.7528C56.5024 52.6451 56.6437 52.5065 56.7535 52.3451C56.8632 52.1836 56.9394 52.0024 56.9776 51.812C57.0157 51.6215 57.0151 51.4255 56.9758 51.2353C56.9365 51.045 56.8592 50.8643 56.7484 50.7035L51.2749 42.6467L59.7857 28.7256C59.8873 28.5598 59.9545 28.376 59.9836 28.1847C60.0127 27.9934 60.003 27.7983 59.9551 27.6107C59.9072 27.4231 59.822 27.2466 59.7045 27.0913C59.5869 26.936 59.4393 26.8051 59.2701 26.7059ZM22.5033 20.1664C21.0015 19.2075 19.285 18.6206 17.5012 18.4561C15.7174 18.2916 13.9196 18.5544 12.2621 19.222C12.9455 15.4828 14.9467 12.0984 17.9155 9.66083C20.8844 7.22326 24.632 5.88767 28.5028 5.88767C32.3735 5.88767 36.1211 7.22326 39.09 9.66083C42.0588 12.0984 44.06 15.4828 44.7434 19.222C43.086 18.5542 41.2881 18.2913 39.5042 18.4558C37.7204 18.6203 36.0039 19.2073 34.5022 20.1664C32.7178 19.0239 30.6333 18.4155 28.5027 18.4155C26.3722 18.4155 24.2876 19.0239 22.5033 20.1664ZM41.427 38.272H50.4509L48.6511 41.216H39.9281L41.427 38.272Z" fill="#989898"/>
</svg>
