<svg width="55" height="56" viewBox="0 0 55 56" fill="none" xmlns="http://www.w3.org/2000/svg">
<path d="M37.125 27.5107C37.125 24.087 34.705 21.3796 30.5291 19.7186C32.857 18.9527 34.375 17.5764 34.375 15.1357C34.375 12.3871 31.6195 9.61512 26.3148 8.63474C27.0861 7.80562 27.5 6.77299 27.5 5.51074C27.5 1.71162 22.6655 0.0107422 17.875 0.0107422C13.0845 0.0107422 8.25 1.71162 8.25 5.51074C8.25 7.99399 9.78588 9.62337 12.7559 10.4236C10.6851 11.7147 9.625 13.4307 9.625 15.1357C9.625 16.7335 10.285 17.8692 11.3864 18.6819C5.13288 20.0789 1.375 23.2386 1.375 27.5107C1.375 30.9111 4.09612 32.6615 8.129 33.5415C2.86825 35.373 0 38.4695 0 42.6357C0 50.2546 10.406 50.8857 22 50.8857H35.75V48.1357H22.9474H22C7.96675 48.1357 2.75 46.6452 2.75 42.6357C2.75 34.9811 17.4845 34.3857 22 34.3857C28.1023 34.3857 33.1348 35.2121 36.553 36.7755L37.697 34.2757C36.344 33.657 34.771 33.1469 33.0192 32.7412C35.5451 31.721 37.125 30.0944 37.125 27.5107ZM11 5.51074C11 3.99412 14.0841 2.76074 17.875 2.76074C21.6659 2.76074 24.75 3.99412 24.75 5.51074C24.75 7.33537 22.4359 8.26074 17.875 8.26074C13.3141 8.26074 11 7.33537 11 5.51074ZM22 11.0107C28.2796 11.0107 31.625 13.406 31.625 15.1357C31.625 15.8879 31.625 17.8857 22 17.8857C12.375 17.8857 12.375 15.8879 12.375 15.1357C12.375 13.406 15.7204 11.0107 22 11.0107ZM4.125 27.5107C4.125 22.7615 11.7205 20.6357 19.25 20.6357C26.7795 20.6357 34.375 22.7615 34.375 27.5107C34.375 30.3639 29.7096 31.6357 19.25 31.6357C8.79037 31.6357 4.125 30.3639 4.125 27.5107ZM50.875 34.8697V27.5107H42.625V34.8697C41.1579 35.6287 38.5 37.5207 38.5 41.2607V52.2607C38.5 53.7774 39.7334 55.0107 41.25 55.0107H52.25C53.7666 55.0107 55 53.7774 55 52.2607V41.2607C55 37.5207 52.3421 35.6287 50.875 34.8697ZM48.125 30.2607L48.1264 31.6357H45.375V30.2607H48.125ZM44.4345 37.0656L45.375 36.7521V34.3857H48.1305L48.1333 36.7425L49.0586 37.0629C49.1879 37.1069 52.25 38.2027 52.25 41.2607H41.25C41.25 38.2027 44.3121 37.1069 44.4345 37.0656ZM41.25 52.2607V44.0107H52.25V52.2607H41.25Z" fill="#989898"/>
</svg>
