<svg width="47" height="53" viewBox="0 0 47 53" fill="none" xmlns="http://www.w3.org/2000/svg">
<path d="M36.0333 0H4.7C2.10842 0 0 2.08967 0 4.6582V13.9746C0 16.5431 2.10842 18.6328 4.7 18.6328H36.0333C38.6249 18.6328 40.7333 16.5431 40.7333 13.9746V9.31641H42.3C43.1639 9.31641 43.8667 10.013 43.8667 10.8691V20.1855C43.8667 21.0417 43.1639 21.7383 42.3 21.7383H26.6333C22.314 21.7383 18.8 25.2211 18.8 29.502V31.0547H17.2333C16.4179 31.0547 15.7388 31.6745 15.672 32.4799L14.1053 51.3197C14.0693 51.7522 14.2176 52.1799 14.5143 52.4992C14.811 52.8184 15.2288 53 15.6667 53H25.0667C25.5045 53 25.9224 52.8184 26.219 52.4992C26.5157 52.1799 26.664 51.7523 26.628 51.3197L25.0613 32.4799C24.9945 31.6745 24.3154 31.0547 23.5 31.0547H21.9333V29.502C21.9333 26.9334 24.0418 24.8438 26.6333 24.8438H42.3C44.8916 24.8438 47 22.7541 47 20.1855V10.8691C47 8.30061 44.8916 6.21094 42.3 6.21094H40.7333V4.6582C40.7333 2.08967 38.6249 0 36.0333 0ZM23.3656 49.8945H17.3678L18.6761 34.1602H22.0571L23.3656 49.8945ZM4.7 3.10547H36.0333C36.8972 3.10547 37.6 3.80203 37.6 4.6582V9.30895C29.3731 9.22976 25.1158 8.52669 20.6242 7.78479C16.204 7.05469 11.6411 6.3012 3.13333 6.21849V4.6582C3.13333 3.80203 3.83614 3.10547 4.7 3.10547ZM36.0333 15.5273H4.7C3.83614 15.5273 3.13333 14.8308 3.13333 13.9746V9.32386C11.3602 9.40305 15.6176 10.1061 20.1091 10.848C24.5293 11.5781 29.0923 12.3317 37.6 12.4143V13.9746C37.6 14.8308 36.8972 15.5273 36.0333 15.5273Z" fill="#989898"/>
</svg>
