<svg width="57" height="56" viewBox="0 0 57 56" fill="none" xmlns="http://www.w3.org/2000/svg">
<path d="M56.0393 50.3211L56.0398 50.3213L56.0428 50.3112C56.2383 49.6467 55.9201 48.8888 55.2555 48.6166C54.5922 48.345 53.8371 48.6527 53.5672 49.3243C52.6377 51.5976 50.4697 53.0626 48.0414 53.0626C45.7431 53.0626 43.6898 51.7787 42.6789 49.6869L42.6788 49.6868C42.4593 49.234 41.9833 49.0152 41.5199 49.0152C41.0565 49.0152 40.5805 49.234 40.3609 49.6868C39.3499 51.7622 37.2798 53.0626 34.9983 53.0626C32.7 53.0626 30.6467 51.7787 29.6358 49.6869L29.6358 49.6868C29.4162 49.234 28.9402 49.0152 28.4768 49.0152C28.0134 49.0152 27.5374 49.234 27.3179 49.6868C26.3068 51.7622 24.2368 53.0626 21.9553 53.0626C19.6569 53.0626 17.6036 51.7787 16.5927 49.6869L16.5927 49.6868C16.3731 49.234 15.8971 49.0152 15.4337 49.0152C14.9704 49.0152 14.4944 49.234 14.2749 49.6867C13.2639 51.7622 11.1937 53.0626 8.91219 53.0626C6.48402 53.0626 4.31611 51.5977 3.38655 49.3245C3.11674 48.6527 2.36151 48.345 1.69811 48.6166C1.03177 48.8895 0.728714 49.652 0.996848 50.3202L0.997043 50.3207C2.32158 53.5726 5.44066 55.6735 8.92876 55.6735C11.4868 55.6735 13.85 54.5413 15.4586 52.6326C17.0666 54.5412 19.414 55.6735 21.9884 55.6735C24.5464 55.6735 26.9096 54.5413 28.5182 52.6326C30.1263 54.5412 32.4736 55.6735 35.0481 55.6735C37.6061 55.6735 39.9693 54.5413 41.5779 52.6326C43.1859 54.5412 45.5333 55.6735 48.1077 55.6735C51.5961 55.6735 54.6982 53.5724 56.0393 50.3211ZM55.9896 40.7111L55.9899 40.7102C56.258 40.042 55.955 39.2795 55.2887 39.0066C54.6252 38.7349 53.87 39.0428 53.6002 39.7146C52.6706 41.9877 50.5027 43.4526 48.0746 43.4526C45.7762 43.4526 43.7229 42.1687 42.712 40.0769L42.712 40.0768C42.4925 39.624 42.0165 39.4052 41.553 39.4052C41.0896 39.4052 40.6136 39.624 40.3941 40.0768C39.3831 42.1522 37.313 43.4526 35.0315 43.4526C32.7331 43.4526 30.6798 42.1687 29.669 40.0769L29.6689 40.0768C29.4494 39.624 28.9734 39.4052 28.51 39.4052C28.0465 39.4052 27.5705 39.624 27.351 40.0768C26.34 42.1522 24.2699 43.4526 21.9884 43.4526C19.6901 43.4526 17.6368 42.1687 16.6259 40.0769L16.6258 40.0768C16.4063 39.624 15.9303 39.4052 15.4669 39.4052C15.0035 39.4052 14.5276 39.624 14.308 40.0767C13.297 42.1522 11.2269 43.4526 8.94533 43.4526C6.51717 43.4526 4.34926 41.9877 3.4197 39.7145C3.14989 39.0427 2.39465 38.7349 1.73126 39.0066C1.06511 39.2794 0.762037 40.0416 1.02976 40.7096C2.28799 43.9628 5.39125 46.0635 8.87904 46.0635C11.4371 46.0635 13.8002 44.9313 15.4089 43.0226C17.0169 44.9312 19.3643 46.0635 21.9387 46.0635C24.4967 46.0635 26.8599 44.9313 28.4685 43.0226C30.0766 44.9312 32.4239 46.0635 34.9983 46.0635C37.5564 46.0635 39.9195 44.9313 41.5282 43.0226C43.1362 44.9312 45.4836 46.0635 48.058 46.0635C51.5464 46.0635 54.6485 43.9624 55.9896 40.7111ZM55.185 6.1171C55.185 3.25015 52.8707 0.910742 50.0302 0.910742C47.1897 0.910742 44.8754 3.25015 44.8754 6.1171V19.4108H24.5081V6.1171C24.5081 4.68132 25.6575 3.52161 27.0764 3.52161C28.4952 3.52161 29.6447 4.68132 29.6447 6.1171C29.6447 6.84106 30.2188 7.42254 30.9379 7.42254C31.657 7.42254 32.2312 6.84106 32.2312 6.1171C32.2312 3.25015 29.9168 0.910742 27.0764 0.910742C24.2359 0.910742 21.9216 3.25015 21.9216 6.1171V38.6304C21.9216 39.3543 22.4957 39.9358 23.2148 39.9358C23.9339 39.9358 24.5081 39.3543 24.5081 38.6304V33.2557H44.8754V38.6304C44.8754 39.3543 45.4496 39.9358 46.1687 39.9358C46.8878 39.9358 47.4619 39.3543 47.4619 38.6304V6.1171C47.4619 4.68132 48.6114 3.52161 50.0302 3.52161C51.449 3.52161 52.5985 4.68132 52.5985 6.1171C52.5985 6.84106 53.1726 7.42254 53.8918 7.42254C54.6109 7.42254 55.185 6.84106 55.185 6.1171ZM24.5081 30.6616V22.0217H44.8754V30.6616H24.5081Z" fill="#989898" stroke="#989898" stroke-width="0.2"/>
</svg>
