<svg width="68" height="44" viewBox="0 0 68 44" fill="none" xmlns="http://www.w3.org/2000/svg">
<path d="M64.0178 34.366H62.1725C61.1789 21.281 51.6685 8.33987 39.8869 5.03268C39.4611 2.15686 37.048 0 34.0671 0C31.0863 0 28.6732 2.15686 28.2473 5.03268C16.3238 8.33987 6.95537 21.281 5.96175 34.366H4.11645C1.8453 34.366 0 36.2353 0 38.5359V39.8301C0 42.1307 1.8453 44 4.11645 44H63.8759C66.147 44 67.9923 42.1307 67.9923 39.8301V38.5359C68.1343 36.2353 66.289 34.366 64.0178 34.366ZM31.0863 5.89543C31.0863 4.16994 32.5057 2.87582 34.0671 2.87582C35.6285 2.87582 37.048 4.31373 37.048 5.89543V17.8301C37.048 19.5556 35.6285 20.8497 34.0671 20.8497C32.5057 20.8497 31.0863 19.4118 31.0863 17.8301V5.89543ZM18.7369 13.8039V21.5686C18.7369 22.4314 19.3047 23.0065 20.1564 23.0065C21.0081 23.0065 21.5759 22.4314 21.5759 21.5686V11.5033C23.705 10.0654 25.8342 8.77124 28.2473 8.05229V17.8301C28.2473 21.1373 30.9443 23.7255 34.0671 23.7255C37.19 23.7255 39.8869 20.9935 39.8869 17.8301V8.05229C42.1581 8.77124 44.4292 9.92157 46.5584 11.5033V21.5686C46.5584 22.4314 47.1262 23.0065 47.9779 23.0065C48.8296 23.0065 49.3973 22.4314 49.3973 21.5686V13.8039C54.7913 18.9804 58.6239 26.4575 59.3336 34.366H8.80068C9.51041 26.4575 13.343 18.9804 18.7369 13.8039ZM65.2953 39.8301C65.2953 40.549 64.7275 41.1242 64.0178 41.1242H4.11645C3.40671 41.1242 2.83893 40.549 2.83893 39.8301V38.5359C2.83893 37.817 3.40671 37.2418 4.11645 37.2418C4.25839 37.2418 67.8504 37.2418 63.8759 37.2418C64.5856 37.2418 65.1534 37.817 65.1534 38.5359V39.8301H65.2953Z" fill="#989898"/>
</svg>
