<svg width="52" height="56" viewBox="0 0 52 56" fill="none" xmlns="http://www.w3.org/2000/svg">
<path d="M47.7153 41.5142L47.5209 41.4587C44.7065 40.6933 43.7545 39.9615 42.5019 39.4798C38.0576 37.7694 36.9013 36.5358 36.6056 35.9534C36.5956 35.9332 36.5873 35.9097 36.5773 35.8895L36.549 31.9653C38.9264 28.7502 40.6261 24.7379 40.6261 20.5811C40.6261 20.5811 42.231 13.6717 38.3932 7.16923L38.3915 7.1399C38.3882 7.14076 38.3832 7.14076 38.3765 7.14162C37.5459 5.73762 36.4609 4.3537 35.0487 3.06206C33.5718 1.71188 29.9283 0.0107422 25.534 0.0107422C22.5252 0.0107422 19.1642 0.808027 15.9062 3.06217C9.58616 7.43542 10.2241 18.4646 10.2241 18.4646C10.2241 18.4646 10.666 18.5771 11.4619 18.6828C11.4038 19.3005 11.3739 19.9333 11.3739 20.5812C11.3739 24.7379 13.0734 28.7503 15.451 31.9654L15.4227 35.8896C15.4127 35.9098 15.4044 35.9333 15.3944 35.9535C15.0987 36.5359 13.9424 37.7695 9.49812 39.4799C8.24545 39.9616 7.29349 40.6934 4.47906 41.4588L4.28469 41.5143C1.72279 42.3703 -6.10352e-05 44.7704 -6.10352e-05 47.4795V55.0107H20.4152H26.0007H31.7558H32.8905H44.2329H51.9999V47.4795C51.9999 44.7704 50.2771 42.3702 47.7153 41.5142ZM34.3094 35.9048L34.3127 36.3899L34.5005 36.8129C34.5171 36.8499 34.5454 36.9186 34.5868 36.9992C34.6417 37.1066 34.7047 37.2123 34.7712 37.3164L32.0515 38.7532L30.5961 37.5077C31.8454 36.7642 33.1098 35.7688 34.2993 34.5805L34.3094 35.9048ZM28.1108 42.4054H23.8892L23.2347 39.0955L23.7863 38.6222C24.5622 38.8807 25.3081 39.0184 26.0009 39.0184C26.7287 39.0184 27.5178 38.8639 28.3385 38.5804L28.7904 38.968L28.1108 42.4054ZM37.4112 13.6164C36.9145 13.0474 36.3579 12.5816 35.7516 12.2224C36.21 11.0995 36.7883 10.4255 37.3016 10.0219C37.9263 11.4578 38.3466 13.0163 38.5493 14.6578C38.5809 14.9147 38.6074 15.1647 38.6273 15.4098C38.2619 14.7192 37.8615 14.1308 37.4112 13.6164ZM12.9406 12.7411C13.2712 11.0525 13.7597 9.56044 14.3977 8.30747C15.1354 6.85223 16.0741 5.72344 17.1871 4.95301C19.729 3.19397 22.5384 2.3027 25.534 2.3027C29.3984 2.3027 32.4869 3.81079 33.5269 4.76169C34.5836 5.72763 35.4857 6.80689 36.2267 7.98435C35.3262 8.59364 34.3294 9.64101 33.6167 11.4386C33.2445 11.3739 32.8608 11.3413 32.4686 11.3413C30.7757 11.3413 28.9515 11.9195 26.8913 13.1087C21.9288 15.973 17.3383 16.5748 14.3611 16.5748C13.6484 16.5748 13.022 16.5395 12.502 16.4925C12.5469 15.4896 12.6631 14.1636 12.9406 12.7411ZM13.7248 18.8574C13.9309 18.8633 14.1418 18.8658 14.3611 18.8658C17.6806 18.8658 22.6565 18.1926 28.0161 15.0985C29.8204 14.057 31.2791 13.6324 32.4686 13.6324C35.3245 13.6324 36.6188 16.0813 37.3964 18.2968C37.6622 19.0555 37.9962 19.5784 38.345 19.9359C38.3533 20.149 38.3583 20.3647 38.3583 20.5813C38.3583 24.3553 36.6588 28.4768 33.6948 31.8883C32.3923 33.3889 30.9336 34.6427 29.4765 35.5171C28.174 36.2959 26.9396 36.7256 26.0008 36.7256C25.0605 36.7256 23.8261 36.2959 22.5236 35.5171C21.0665 34.641 19.6078 33.3889 18.3053 31.8883C15.3413 28.4768 13.6418 24.3553 13.6418 20.5813C13.6417 19.9954 13.6699 19.4206 13.7248 18.8574ZM21.5067 37.5681L20.1227 38.7531L17.2718 37.2475C17.3217 37.1652 17.3699 37.083 17.4131 36.9991C17.4529 36.9203 17.4828 36.8531 17.4978 36.8128L17.6872 36.3898L17.6905 35.9047L17.7005 34.5804C18.9233 35.8024 20.2242 36.8195 21.5067 37.5681ZM2.26784 52.7179V47.4794C2.26784 45.7707 3.34942 44.2585 4.96094 43.7029L5.08726 43.6659C7.20885 43.0885 8.38017 42.5228 9.32214 42.0663C9.686 41.8917 9.99999 41.7374 10.3057 41.6199C11.9804 40.9753 14.0704 40.0858 15.6072 38.9545L20.4236 41.4991L21.2559 40.7874L21.8424 43.7482L20.706 52.7179H2.26784ZM26.0008 52.7179H22.992L24.0088 44.6982H27.9878L29.1359 52.7179H26.0008ZM35.1584 52.7179V50.4286H41.9635V52.7179H35.1584ZM49.7321 52.7179H44.2329V48.1357H40.8304C40.8304 47.5029 40.322 46.9911 39.6956 46.9911H37.4278C36.8014 46.9911 36.2931 47.503 36.2931 48.1357H32.8905V52.7179H31.4285L30.1493 43.7885L30.769 40.6598L31.7508 41.499L36.4659 39.0065C37.9961 40.1142 40.0479 40.9871 41.696 41.6216C42 41.7374 42.314 41.8918 42.6778 42.0664C43.6198 42.5229 44.7911 43.0886 46.9127 43.666L47.039 43.703C48.6523 44.2586 49.7321 45.7708 49.7321 47.4795V52.7179Z" fill="#989898"/>
</svg>
