<svg width="53" height="53" viewBox="0 0 53 53" fill="none" xmlns="http://www.w3.org/2000/svg">
<path d="M35.3331 15.8999H34.1553C33.5075 15.8999 32.9775 16.4299 32.9775 17.0777V19.4332C32.9775 20.081 33.5075 20.611 34.1553 20.611H35.3331C35.9809 20.611 36.5109 20.081 36.5109 19.4332V17.0777C36.5109 16.4299 35.9809 15.8999 35.3331 15.8999Z" fill="#989898"/>
<path d="M42.4 15.8999H41.2222C40.5744 15.8999 40.0444 16.4299 40.0444 17.0777V19.4332C40.0444 20.081 40.5744 20.611 41.2222 20.611H42.4C43.0478 20.611 43.5778 20.081 43.5778 19.4332V17.0777C43.5778 16.4299 43.0478 15.8999 42.4 15.8999Z" fill="#989898"/>
<path d="M35.3331 25.3223H34.1553C33.5075 25.3223 32.9775 25.8523 32.9775 26.5V28.8556C32.9775 29.5034 33.5075 30.0334 34.1553 30.0334H35.3331C35.9809 30.0334 36.5109 29.5034 36.5109 28.8556V26.5C36.5109 25.8523 35.9809 25.3223 35.3331 25.3223Z" fill="#989898"/>
<path d="M42.4 25.3223H41.2222C40.5744 25.3223 40.0444 25.8523 40.0444 26.5V28.8556C40.0444 29.5034 40.5744 30.0334 41.2222 30.0334H42.4C43.0478 30.0334 43.5778 29.5034 43.5778 28.8556V26.5C43.5778 25.8523 43.0478 25.3223 42.4 25.3223Z" fill="#989898"/>
<path d="M51.8222 50.6444H51.2333V1.17778C51.2333 0.53 50.7033 0 50.0556 0H26.5C25.8522 0 25.3222 0.53 25.3222 1.17778V12.9556H11.1889C10.5411 12.9556 10.0111 13.4856 10.0111 14.1333V24.0856L1.70778 29.3267C1.35444 29.5622 1.17778 29.9156 1.17778 30.3278V45.3444V50.6444C0.53 50.6444 0 51.1744 0 51.8222C0 52.47 0.53 53 1.17778 53H2.35556H11.1889H20.0222H26.5H34.1556H42.4H50.0556H51.8222C52.47 53 53 52.47 53 51.8222C53 51.1744 52.47 50.6444 51.8222 50.6444ZM3.53333 30.9756L11.1889 26.1467L18.8444 30.9756V44.1667H3.53333V30.9756ZM11.1889 50.6444H3.53333V46.5222H18.8444V50.6444H11.1889ZM21.2 50.6444V45.3444V30.3278C21.2 29.9156 20.9644 29.5622 20.67 29.3267L12.3667 24.0856V15.3111H25.3222V50.6444H21.2ZM35.3333 50.6444V37.6889H41.2222V50.6444H35.3333ZM43.5778 50.6444V36.5111C43.5778 35.8633 43.0478 35.3333 42.4 35.3333H34.1556C33.5078 35.3333 32.9778 35.8633 32.9778 36.5111V50.6444H27.6778V14.1333V2.35556H48.8778V50.6444H43.5778Z" fill="#989898"/>
<path d="M40.7514 11.542C41.2814 10.6587 41.3403 9.53983 40.928 8.5976L39.338 5.35872C39.1614 4.94649 38.7491 4.71094 38.278 4.71094C37.8069 4.71094 37.3947 4.94649 37.218 5.35872L35.628 8.5976C35.1569 9.53983 35.2158 10.6587 35.8047 11.542C36.3347 12.4254 37.2769 12.9554 38.278 12.9554C39.2791 12.9554 40.2214 12.4254 40.7514 11.542ZM38.7492 10.3054C38.6903 10.4232 38.5725 10.5998 38.278 10.5998C37.9836 10.5998 37.8658 10.4232 37.8069 10.3054C37.748 10.1876 37.6303 9.95205 37.748 9.6576L38.278 8.5976L38.808 9.6576C38.9258 9.95205 38.808 10.2465 38.7492 10.3054Z" fill="#989898"/>
</svg>
