<svg width="44" height="56" fill="none" xmlns="http://www.w3.org/2000/svg"><path d="M42.918 9.328L22.751.16a1.833 1.833 0 00-1.503 0L1.081 9.328A1.833 1.833 0 000 10.996v8.195a40.499 40.499 0 0021.12 35.586 1.834 1.834 0 001.833 0A40.5 40.5 0 0044 19.19v-8.195a1.834 1.834 0 00-1.082-1.668zm-2.585 9.863A36.831 36.831 0 0122 51.055 36.832 36.832 0 013.666 19.191V12.17L22 3.846l18.333 8.324v7.021zm-20.167 9.387l6.949-6.967a1.84 1.84 0 112.603 2.604l-8.25 8.25a1.831 1.831 0 01-2.603 0l-3.667-3.667a1.84 1.84 0 112.603-2.603l2.365 2.383z" fill="#989898"/></svg>