<svg width="55" height="56" fill="none" xmlns="http://www.w3.org/2000/svg"><path d="M37.125 27.51c0-3.423-2.42-6.13-6.596-7.791 2.328-.766 3.846-2.143 3.846-4.583 0-2.749-2.756-5.52-8.06-6.501.771-.83 1.185-1.862 1.185-3.124 0-3.8-4.834-5.5-9.625-5.5-4.79 0-9.625 1.7-9.625 5.5 0 2.483 1.536 4.112 4.506 4.913-2.07 1.29-3.131 3.007-3.131 4.712 0 1.598.66 2.733 1.761 3.546-6.253 1.397-10.011 4.557-10.011 8.829 0 3.4 2.721 5.15 6.754 6.03C2.869 35.373 0 38.47 0 42.636c0 7.619 10.406 8.25 22 8.25h13.75v-2.75H22c-14.033 0-19.25-1.49-19.25-5.5 0-7.655 14.735-8.25 19.25-8.25 6.102 0 11.135.826 14.553 2.39l1.144-2.5c-1.353-.619-2.926-1.13-4.678-1.535 2.526-1.02 4.106-2.647 4.106-5.23zM11 5.51c0-1.516 3.084-2.75 6.875-2.75 3.79 0 6.875 1.234 6.875 2.75 0 1.825-2.314 2.75-6.875 2.75-4.56 0-6.875-.925-6.875-2.75zm11 5.5c6.28 0 9.625 2.396 9.625 4.126 0 .752 0 2.75-9.625 2.75s-9.625-1.998-9.625-2.75c0-1.73 3.345-4.125 9.625-4.125zM4.125 27.51c0-4.748 7.595-6.874 15.125-6.874s15.125 2.126 15.125 6.875c0 2.853-4.665 4.125-15.125 4.125S4.125 30.364 4.125 27.51zm46.75 7.36v-7.36h-8.25v7.36c-1.467.759-4.125 2.65-4.125 6.39v11a2.753 2.753 0 002.75 2.75h11A2.753 2.753 0 0055 52.26v-11c0-3.74-2.658-5.631-4.125-6.39zm-2.75-4.61l.001 1.376h-2.751V30.26h2.75zm-3.69 6.806l.94-.314v-2.366h2.755l.003 2.356.926.32c.129.045 3.191 1.14 3.191 4.199h-11c0-3.058 3.062-4.154 3.184-4.195zM41.25 52.26v-8.25h11v8.25h-11z" fill="#989898"/></svg>