<svg width="57" height="56" fill="none" xmlns="http://www.w3.org/2000/svg"><path d="M56.04 50.321h0l.003-.01c.195-.664-.123-1.422-.788-1.694a1.285 1.285 0 00-1.688.707c-.93 2.274-3.097 3.739-5.526 3.739-2.298 0-4.351-1.284-5.362-3.376h0c-.22-.453-.696-.672-1.16-.672-.462 0-.938.219-1.158.672-1.011 2.075-3.081 3.376-5.363 3.376-2.298 0-4.351-1.284-5.362-3.376h0c-.22-.453-.696-.672-1.16-.672-.463 0-.939.219-1.158.672-1.011 2.075-3.081 3.376-5.363 3.376-2.298 0-4.351-1.284-5.362-3.376h0c-.22-.453-.696-.672-1.16-.672-.463 0-.939.219-1.158.672-1.011 2.075-3.081 3.376-5.363 3.376-2.428 0-4.596-1.465-5.525-3.739a1.285 1.285 0 00-1.689-.707 1.304 1.304 0 00-.701 1.703h0a8.547 8.547 0 0014.462 2.313 8.49 8.49 0 006.53 3.04 8.515 8.515 0 006.53-3.04 8.49 8.49 0 006.53 3.04 8.515 8.515 0 006.529-3.04 8.49 8.49 0 006.53 3.04c3.488 0 6.59-2.1 7.931-5.352zm-.05-9.61h0c.268-.669-.035-1.431-.701-1.704a1.285 1.285 0 00-1.689.708c-.93 2.273-3.097 3.738-5.525 3.738-2.299 0-4.352-1.284-5.363-3.376h0c-.22-.453-.696-.672-1.159-.672-.463 0-.94.219-1.159.672a5.956 5.956 0 01-5.362 3.376c-2.299 0-4.352-1.284-5.363-3.376h0c-.22-.453-.696-.672-1.159-.672-.463 0-.94.219-1.159.672-1.011 2.075-3.081 3.376-5.363 3.376-2.298 0-4.351-1.284-5.362-3.376h0c-.22-.453-.696-.672-1.16-.672-.462 0-.938.219-1.158.672-1.011 2.075-3.081 3.376-5.363 3.376-2.428 0-4.596-1.465-5.525-3.739a1.285 1.285 0 00-1.689-.707c-.666.272-.969 1.035-.701 1.703 1.258 3.253 4.361 5.353 7.849 5.353a8.515 8.515 0 006.53-3.04 8.49 8.49 0 006.53 3.04 8.515 8.515 0 006.53-3.04 8.49 8.49 0 006.53 3.04 8.515 8.515 0 006.53-3.04 8.49 8.49 0 006.529 3.04c3.488 0 6.59-2.1 7.932-5.352zm-.805-34.594c0-2.867-2.314-5.206-5.155-5.206-2.84 0-5.155 2.34-5.155 5.206v13.294H24.508V6.117c0-1.436 1.15-2.595 2.568-2.595 1.42 0 2.569 1.16 2.569 2.595 0 .724.574 1.306 1.293 1.306s1.293-.582 1.293-1.306c0-2.867-2.314-5.206-5.155-5.206-2.84 0-5.154 2.34-5.154 5.206V38.63c0 .724.574 1.306 1.293 1.306s1.293-.582 1.293-1.306v-5.374h20.367v5.374c0 .724.575 1.306 1.294 1.306.719 0 1.293-.582 1.293-1.306V6.117c0-1.436 1.15-2.595 2.568-2.595 1.419 0 2.569 1.16 2.569 2.595 0 .724.574 1.306 1.293 1.306s1.293-.582 1.293-1.306zM24.508 30.662v-8.64h20.367v8.64H24.508z" fill="#989898" stroke="#989898" stroke-width=".2"/></svg>