<svg width="52" height="56" fill="none" xmlns="http://www.w3.org/2000/svg"><path d="M47.715 41.514l-.194-.055c-2.815-.766-3.767-1.498-5.02-1.98-4.443-1.71-5.6-2.943-5.895-3.526l-.029-.064-.028-3.924c2.377-3.215 4.077-7.227 4.077-11.384 0 0 1.605-6.91-2.233-13.412l-.002-.03c-.003.002-.008.002-.014.003a17.78 17.78 0 00-3.328-4.08c-1.477-1.35-5.12-3.051-9.515-3.051-3.009 0-6.37.797-9.628 3.051-6.32 4.373-5.682 15.403-5.682 15.403s.442.112 1.238.218c-.058.617-.088 1.25-.088 1.898 0 4.157 1.7 8.17 4.077 11.384l-.028 3.925-.029.063c-.295.583-1.452 1.816-5.896 3.527-1.253.482-2.205 1.213-5.019 1.979l-.194.055A6.28 6.28 0 000 47.48v7.532h52V47.48a6.28 6.28 0 00-4.285-5.965zm-13.406-5.61l.004.486.188.423c.016.037.044.106.086.186.055.108.118.213.184.317l-2.72 1.437-1.455-1.245c1.25-.744 2.514-1.74 3.703-2.928l.01 1.325zm-6.198 6.501h-4.222l-.654-3.31.551-.473c.776.259 1.522.396 2.215.396.728 0 1.517-.154 2.337-.438l.452.388-.68 3.437zm9.3-28.789a6.816 6.816 0 00-1.66-1.394c.459-1.122 1.037-1.796 1.55-2.2a16.751 16.751 0 011.248 4.636c.032.257.058.507.078.752a9.273 9.273 0 00-1.216-1.794zm-24.47-.875c.33-1.688.819-3.18 1.457-4.434.737-1.455 1.676-2.584 2.79-3.354 2.541-1.759 5.35-2.65 8.346-2.65 3.864 0 6.953 1.508 7.993 2.459a15.663 15.663 0 012.7 3.222c-.9.61-1.898 1.657-2.61 3.455a6.7 6.7 0 00-1.148-.098c-1.693 0-3.518.579-5.578 1.768-4.962 2.864-9.553 3.466-12.53 3.466a20.7 20.7 0 01-1.859-.082c.045-1.003.161-2.33.439-3.752zm.784 6.116c.206.006.417.009.636.009 3.32 0 8.296-.673 13.655-3.768 1.804-1.041 3.263-1.466 4.453-1.466 2.855 0 4.15 2.45 4.927 4.665.266.758.6 1.281.949 1.639.008.213.013.429.013.645 0 3.774-1.7 7.896-4.663 11.307-1.303 1.5-2.761 2.755-4.218 3.63-1.303.778-2.537 1.208-3.476 1.208-.94 0-2.175-.43-3.477-1.209-1.457-.876-2.916-2.128-4.219-3.629-2.964-3.411-4.663-7.533-4.663-11.307 0-.586.028-1.16.083-1.724zm7.782 18.711l-1.384 1.185-2.851-1.505c.05-.083.098-.165.141-.249.04-.079.07-.146.085-.186l.19-.423.003-.485.01-1.325c1.222 1.222 2.523 2.24 3.806 2.988zm-19.24 15.15v-5.239a3.99 3.99 0 012.694-3.776l.126-.037c2.122-.577 3.293-1.143 4.235-1.6.364-.174.678-.329.984-.446 1.674-.645 3.764-1.534 5.301-2.665l4.817 2.544.832-.712.586 2.961-1.136 8.97H2.268zm23.734 0h-3.009l1.017-8.02h3.979l1.148 8.02H26zm9.157 0v-2.29h6.806v2.29h-6.806zm14.574 0h-5.5v-4.582H40.83a1.14 1.14 0 00-1.134-1.145h-2.268a1.14 1.14 0 00-1.135 1.145h-3.402v4.582h-1.462l-1.28-8.93.62-3.128.982.839 4.715-2.492c1.53 1.107 3.582 1.98 5.23 2.615.304.115.618.27.982.444.942.457 2.113 1.023 4.235 1.6l.126.037a3.988 3.988 0 012.693 3.776v5.239z" fill="#989898"/></svg>