<svg width="21" height="30" fill="none" xmlns="http://www.w3.org/2000/svg"><path d="M19.75 13.148a2.177 2.177 0 00-2.75-.266 2.216 2.216 0 00-.546-.823 2.178 2.178 0 00-1.514-.637 2.148 2.148 0 00-1.209.37 2.217 2.217 0 00-.544-.822 2.178 2.178 0 00-2.604-.344V5.43a2.18 2.18 0 00-.637-1.541 2.206 2.206 0 00-1.983-.594 2.239 2.239 0 00-1.737 2.217v12.631l-1.493-1.705a2.723 2.723 0 00-3.742-.332l-.376.305a1.596 1.596 0 00-.38 2.091l3.883 6.264a8.905 8.905 0 007.554 4.63 8.715 8.715 0 008.715-8.715V14.69a2.18 2.18 0 00-.637-1.542zm-.452 7.533a7.625 7.625 0 01-7.626 7.626c-2.581 0-5.18-1.602-6.617-4.096L1.182 17.92a.501.501 0 01.142-.66l.37-.304a1.634 1.634 0 011.69-.22c.21.095.4.232.554.405l3.377 3.9V5.512a1.144 1.144 0 01.86-1.171 1.09 1.09 0 01.997.3 1.09 1.09 0 01.322.79v10.893a.545.545 0 001.089 0V12.51a1.09 1.09 0 012.179 0v3.813a.545.545 0 001.089 0V13.6a1.09 1.09 0 012.179 0v2.724a.545.545 0 001.089 0V14.69a1.09 1.09 0 012.179 0v5.991z" fill="#fff"/><path d="M5.137 7.527a.545.545 0 00.174-.751 3.736 3.736 0 116.906-1.967 3.681 3.681 0 01-.544 1.967.545.545 0 10.926.577 4.82 4.82 0 10-8.203 0 .545.545 0 00.74.174z" fill="#fff"/></svg>