<svg width="21" height="30" viewBox="0 0 21 30" fill="none" xmlns="http://www.w3.org/2000/svg">
<path d="M19.7498 13.1484C19.5473 12.9461 19.307 12.7857 19.0425 12.6764C18.778 12.567 18.4946 12.5109 18.2084 12.5111C17.7773 12.5103 17.3559 12.6394 16.9992 12.8815C16.8817 12.5699 16.6956 12.2888 16.4545 12.059C16.0523 11.6571 15.5089 11.4284 14.9404 11.4217C14.5092 11.4209 14.0879 11.55 13.7312 11.7921C13.6137 11.4805 13.4275 11.1994 13.1865 10.9697C12.8489 10.6371 12.4121 10.4237 11.9423 10.3618C11.4724 10.2998 10.9952 10.3928 10.583 10.6265V5.43036C10.5832 5.14416 10.527 4.86073 10.4177 4.59625C10.3084 4.33177 10.148 4.09142 9.94572 3.88894C9.68901 3.63538 9.37402 3.44866 9.02836 3.34515C8.68271 3.24165 8.31694 3.22451 7.96312 3.29524C7.46345 3.40994 7.01829 3.69266 6.70204 4.09615C6.38579 4.49964 6.21761 4.99946 6.22561 5.51206V18.143L4.73321 16.4382C4.27146 15.9129 3.62534 15.5854 2.92872 15.5236C2.23211 15.4617 1.53839 15.6702 0.99132 16.1059L0.615496 16.4109C0.306088 16.6518 0.0961994 16.9982 0.0258769 17.384C-0.0444455 17.7697 0.0297213 18.1679 0.234226 18.5025L4.11773 24.7662C4.86338 26.1301 5.95305 27.2751 7.27838 28.0873C8.60372 28.8995 10.1186 29.3506 11.6723 29.3959C13.9836 29.3959 16.2003 28.4777 17.8346 26.8434C19.4689 25.2091 20.3871 22.9925 20.3871 20.6812V14.6898C20.3873 14.4036 20.3311 14.1201 20.2218 13.8557C20.1124 13.5912 19.9521 13.3508 19.7498 13.1484ZM19.2977 20.6812C19.2977 22.7035 18.4943 24.6431 17.0643 26.0731C15.6343 27.5032 13.6947 28.3066 11.6723 28.3066C9.09059 28.3066 6.4925 26.7052 5.05457 24.2106L1.18195 17.9197C1.11936 17.8119 1.09919 17.6846 1.12538 17.5628C1.15156 17.4409 1.22223 17.3332 1.32357 17.2606L1.69395 16.9556C1.98289 16.7238 2.34204 16.597 2.71248 16.5961C2.94366 16.5951 3.17243 16.643 3.38369 16.7369C3.59495 16.8308 3.78387 16.9685 3.93799 17.1408L7.31496 21.0406V5.51206C7.30049 5.24738 7.3784 4.9859 7.53537 4.7723C7.69234 4.5587 7.91862 4.40626 8.17554 4.34101C8.35348 4.30381 8.5379 4.31174 8.712 4.36406C8.8861 4.41638 9.04434 4.51145 9.17229 4.64058C9.27621 4.74385 9.35823 4.86702 9.41345 5.00272C9.46866 5.13842 9.49594 5.28387 9.49364 5.43036V16.3238C9.49364 16.4682 9.55103 16.6068 9.65317 16.7089C9.75532 16.8111 9.89386 16.8685 10.0383 16.8685C10.1828 16.8685 10.3213 16.8111 10.4235 16.7089C10.5256 16.6068 10.583 16.4682 10.583 16.3238V12.5111C10.583 12.2222 10.6978 11.9451 10.902 11.7408C11.1063 11.5365 11.3834 11.4217 11.6723 11.4217C11.9612 11.4217 12.2383 11.5365 12.4426 11.7408C12.6469 11.9451 12.7617 12.2222 12.7617 12.5111V16.3238C12.7617 16.4682 12.8191 16.6068 12.9212 16.7089C13.0233 16.8111 13.1619 16.8685 13.3063 16.8685C13.4508 16.8685 13.5893 16.8111 13.6915 16.7089C13.7936 16.6068 13.851 16.4682 13.851 16.3238V13.6004C13.851 13.3115 13.9658 13.0344 14.1701 12.8301C14.3744 12.6259 14.6514 12.5111 14.9404 12.5111C15.2293 12.5111 15.5063 12.6259 15.7106 12.8301C15.9149 13.0344 16.0297 13.3115 16.0297 13.6004V16.3238C16.0297 16.4682 16.0871 16.6068 16.1892 16.7089C16.2914 16.8111 16.4299 16.8685 16.5744 16.8685C16.7188 16.8685 16.8574 16.8111 16.9595 16.7089C17.0617 16.6068 17.119 16.4682 17.119 16.3238V14.6898C17.119 14.4009 17.2338 14.1238 17.4381 13.9195C17.6424 13.7152 17.9195 13.6004 18.2084 13.6004C18.4973 13.6004 18.7744 13.7152 18.9787 13.9195C19.183 14.1238 19.2977 14.4009 19.2977 14.6898V20.6812Z" fill="white"/>
<path d="M5.13666 7.52731C5.19755 7.48948 5.25038 7.44001 5.29211 7.38173C5.33384 7.32345 5.36366 7.2575 5.37985 7.18767C5.39605 7.11784 5.3983 7.0455 5.38647 6.9748C5.37465 6.9041 5.34899 6.83642 5.31096 6.77566C5.00445 6.28442 4.81631 5.72867 4.76137 5.15226C4.70644 4.57586 4.78621 3.99457 4.9944 3.45428C5.2026 2.91398 5.53351 2.42947 5.96102 2.03897C6.38854 1.64846 6.90096 1.36266 7.45785 1.20412C8.01474 1.04557 8.60085 1.01862 9.16994 1.12538C9.73903 1.23215 10.2755 1.46972 10.7371 1.81934C11.1986 2.16896 11.5726 2.62106 11.8295 3.13996C12.0864 3.65887 12.2192 4.23038 12.2174 4.8094C12.2247 5.50304 12.0359 6.18463 11.6727 6.77566C11.6347 6.83642 11.609 6.9041 11.5972 6.9748C11.5854 7.0455 11.5876 7.11784 11.6038 7.18767C11.62 7.2575 11.6498 7.32345 11.6916 7.38173C11.7333 7.44001 11.7861 7.48948 11.847 7.52731C11.9337 7.58103 12.0337 7.60934 12.1357 7.60901C12.2283 7.60919 12.3193 7.58579 12.4003 7.541C12.4813 7.4962 12.5496 7.43151 12.5987 7.35301C13.0496 6.62278 13.2974 5.78539 13.3164 4.92735C13.3355 4.06932 13.1251 3.22175 12.707 2.47222C12.289 1.72269 11.6783 1.09837 10.9383 0.663754C10.1982 0.229142 9.35553 0 8.49728 0C7.63904 0 6.79635 0.229142 6.05629 0.663754C5.31622 1.09837 4.70561 1.72269 4.28753 2.47222C3.86946 3.22175 3.65908 4.06932 3.67813 4.92735C3.69718 5.78539 3.94497 6.62278 4.39591 7.35301C4.4722 7.47301 4.59239 7.55841 4.7308 7.59098C4.86921 7.62355 5.01487 7.6007 5.13666 7.52731Z" fill="white"/>
</svg>
