<svg width="143" height="52" fill="none" xmlns="http://www.w3.org/2000/svg"><path fill-rule="evenodd" clip-rule="evenodd" d="M45.258 31.032V14.617l10.111 9.705c.602.6 1.204 1.198 1.685 1.917V15.336h2.408v16.415L49.23 21.926c-.601-.6-1.083-1.078-1.564-1.797v11.023h-2.408v-.12zm84.98 0l5.176-8.267-4.574-7.549h2.648l2.287 3.834c.361.48.601 1.079.842 1.558.241-.48.602-1.078.843-1.558l2.407-3.834h2.648l-4.694 7.549 4.935 8.267h-2.889l-2.648-4.433c-.241-.48-.602-1.079-.843-1.558-.24.48-.601 1.078-.842 1.558l-2.769 4.553h-2.527v-.12zm-13.361 0V15.336h8.907v2.157h-6.259v3.954h6.259v2.276h-6.259v5.032h6.259v2.277h-8.907zm-11.555.719L98.22 15.336h2.648l3.611 8.387c.361.839.602 1.678.843 2.516.24-.838.481-1.677.842-2.516l3.491-8.387h2.648l-6.981 16.415zm-21.065-2.996h2.167c2.528 0 4.574-.359 5.537-2.995.24-.719.481-1.677.481-2.636 0-.958-.12-1.917-.481-2.636-1.084-2.756-3.25-2.995-5.898-2.995h-1.806v11.262zm-2.648 2.277V15.336h3.49c3.853 0 7.584.12 9.27 4.194.48 1.078.721 2.396.721 3.714 0 1.438-.24 2.636-.722 3.714-1.685 3.834-4.935 4.194-8.546 4.194H81.61v-.12zm-15.166 0V15.336h8.907v2.157h-6.259v3.954h6.26v2.276h-6.26v5.032h6.26v2.277h-8.908zM30.814 51.88h-1.926V40.498c.241-.24.482-.36.602-.6V24.324c.24-.48.482-.959.602-1.438V0h.602v51.88h.12zM26.24 29.714c.24-.36.482-.599.602-.958V12.22c.24-.599.482-1.198.602-1.797V52h-1.926v-8.986c.24-.12.481-.24.602-.48v-12.82h.12zm-3.13 3.834c.241-.24.482-.479.602-.718V19.41c.241-.48.482-.839.602-1.318V51.88h-1.926v-7.189c.241-.12.482-.24.602-.36V33.549h.12zm-3.25 3.116c.241-.24.482-.36.602-.6V25.042c.241-.359.482-.718.602-1.078V51.88H19.26v-5.75c.24-.12.481-.12.602-.24v-9.225zm-3.129 2.516c.24-.12.482-.36.602-.48v-8.986c.24-.24.481-.599.602-.838V52h-1.926v-4.553c.24-.12.481-.12.602-.24V39.18h.12zm-3.25 2.156c.24-.12.482-.24.602-.479v-7.309c.24-.24.482-.479.602-.718v19.05h-1.926v-3.714c.24 0 .481-.12.602-.12v-6.71h.12zm-3.25 1.918c.241-.12.482-.24.602-.36v-5.99l.602-.6V52H9.629v-2.995c.241 0 .482-.12.602-.12v-5.631zm-3.13 1.557c.241-.12.482-.24.603-.36V39.78c.24-.24.481-.36.601-.6v12.7H6.38v-2.516c.241 0 .482 0 .602-.12v-4.433h.12zm-3.25 1.438c.242-.12.482-.12.603-.24v-3.714c.24-.12.481-.36.601-.48V51.88H3.25v-2.157h.602V46.25zm-3.25 1.198c.242-.12.482-.12.603-.24v-2.875c.24-.12.481-.24.602-.36v7.908H0v-2.037h.602v-2.396zm49.833-10.543v1.198c-.481-.48-1.083-.719-1.805-.719-.723 0-1.325.24-1.686.72-.481.478-.601 1.077-.601 1.796 0 .72.24 1.318.722 1.678.481.479.963.719 1.685.719.602 0 1.203-.24 1.805-.72v1.199c-.602.12-1.203.36-1.925.36-.843 0-1.686-.24-2.287-.84-.723-.598-1.084-1.437-1.084-2.396 0-1.078.361-1.917 1.084-2.516.601-.599 1.324-.839 2.287-.839.722-.12 1.324 0 1.805.36zm6.5.48c.602-.6 1.444-.96 2.407-.96.963 0 1.806.36 2.407.96.602.598.964 1.437.964 2.395 0 .96-.362 1.798-.964 2.397-.601.599-1.444.958-2.407.958-.963 0-1.805-.36-2.407-.958-.602-.6-.963-1.438-.963-2.397 0-.958.361-1.797.963-2.396zm.722 4.073c.482.48.963.719 1.685.719.722 0 1.204-.24 1.685-.72.482-.478.722-1.077.722-1.796 0-.72-.24-1.318-.722-1.797-.481-.48-.963-.72-1.685-.72-.722 0-1.203.24-1.685.72-.481.479-.722 1.078-.722 1.797 0 .838.24 1.438.722 1.797zm11.916 1.558h-.963v-6.83l4.695 4.912v-4.433h.963v6.83l-4.695-4.913v4.434zm14.445-5.512l-.843.48c-.12-.12-.12-.24-.24-.36-.242-.12-.482-.24-.723-.24-.24 0-.481.12-.722.24-.12.12-.24.36-.24.599 0 .36.24.599.721.839l.602.24c.963.359 1.565 1.078 1.565 1.916 0 .6-.24 1.079-.602 1.438-.361.36-.843.6-1.444.6-.602 0-1.084-.24-1.565-.6-.361-.36-.482-.719-.602-1.198l.963-.24c0 .36.12.6.24.839.242.24.482.36.843.36s.602-.12.722-.24c.241-.24.362-.48.362-.839 0-.24-.12-.48-.241-.719-.12-.12-.361-.24-.722-.36l-.602-.239c-.843-.36-1.324-.958-1.324-1.677 0-.48.12-.839.481-1.198.361-.36.843-.48 1.445-.48.481 0 .963.12 1.324.48.24-.12.481.12.602.359zm6.018-.959h.963v3.835c0 .479.12.838.24 1.078a.94.94 0 00.482.48c.24.119.482.239.722.239.241 0 .482-.12.723-.24.24-.12.36-.24.481-.48.12-.239.24-.598.24-1.077v-3.834h.964v4.193c0 .719-.241 1.198-.602 1.678-.482.479-1.084.718-1.806.718s-1.324-.24-1.805-.718c-.361-.48-.602-.96-.602-1.678v-4.194zm10.953 0h.963v5.512h1.926v.959h-2.889v-6.47zm11.435.959h-1.444v5.512h-.963v-5.512h-1.444v-.959h3.972v.959h-.121zm5.417-.959h.963v6.47h-.963v-6.47zm8.185 6.47h-.963v-6.829l4.694 4.912v-4.433h.963v6.83l-4.694-4.913v4.434zm14.203-2.516v-.958h2.648c0 1.078-.361 2.037-.963 2.636-.601.599-1.324.839-2.166.839-.843 0-1.685-.24-2.167-.84-.602-.598-.963-1.437-.963-2.395 0-.48.121-.959.241-1.318.12-.48.361-.72.722-1.079.241-.24.602-.479 1.083-.719.482-.12.843-.24 1.324-.24.602 0 1.204.12 1.686.36.481.24.842.6 1.083.959l-.843.599c-.24-.36-.481-.6-.842-.72-.361-.239-.722-.239-1.204-.239-.722 0-1.204.24-1.685.72-.241.239-.361.478-.481.838-.121.36-.241.599-.241.958 0 .72.241 1.318.722 1.798.361.479.963.599 1.565.599s1.083-.24 1.444-.6c.361-.359.482-.718.602-1.078h-1.565v-.12z" fill="#fff"/></svg>