<svg width="13" height="16" fill="none" xmlns="http://www.w3.org/2000/svg"><path d="M12.29 3.352A6.07 6.07 0 006.831 0c-.96 0-1.87.219-2.728.657-1.448.724-2.51 1.987-3.032 3.554-.505 1.549-.387 3.233.32 4.631.792 1.566 4.396 5.912 4.8 6.4l.64.758.624-.775c.168-.202 3.94-4.8 4.8-6.366.943-1.684.943-3.688.033-5.507zm-.742 5.12c-.825 1.515-4.716 6.248-4.716 6.248s-3.924-4.716-4.699-6.248c-1.28-2.493-.27-5.777 2.341-7.074A5.155 5.155 0 016.832.842a5.27 5.27 0 014.716 2.897c.775 1.533.809 3.25 0 4.733z" fill="#989898"/><path d="M6.849 3.352a2.746 2.746 0 100 5.492 2.746 2.746 0 000-5.492zm0 4.665a1.92 1.92 0 110-3.84 1.92 1.92 0 110 3.84z" fill="#989898"/></svg>