<svg width="13" height="16" viewBox="0 0 13 16" fill="none" xmlns="http://www.w3.org/2000/svg">
<path d="M11.5264 3.35158C10.4822 1.28 8.39375 0 6.06954 0C5.10954 0 4.20006 0.218952 3.34111 0.656846C1.89269 1.38106 0.83164 2.64421 0.309535 4.21053C-0.195728 5.76 -0.0778291 7.44421 0.629539 8.84211C1.42112 10.4084 5.02533 14.7537 5.42954 15.2421L6.06954 16L6.6927 15.2253C6.86112 15.0232 10.6338 10.4253 11.4927 8.85894C12.4359 7.17473 12.4359 5.17053 11.5264 3.35158ZM10.7853 8.47158C9.96006 9.98737 6.06954 14.72 6.06954 14.72C6.06954 14.72 2.14533 10.0042 1.3706 8.47158C0.090596 5.97895 1.10112 2.69473 3.71164 1.39789C4.46954 1.01052 5.27796 0.842105 6.06954 0.842105C8.00638 0.842105 9.85901 1.90316 10.7853 3.73895C11.5601 5.27158 11.5937 6.98947 10.7853 8.47158Z" fill="#010B24"/>
<path d="M6.08579 3.35156C4.57 3.35156 3.34052 4.58103 3.34052 6.09682C3.34052 7.61261 4.57 8.84208 6.08579 8.84208C7.60158 8.84208 8.83105 7.61261 8.83105 6.09682C8.83105 4.58103 7.60158 3.35156 6.08579 3.35156ZM6.08579 8.01682C5.02473 8.01682 4.16578 7.15788 4.16578 6.09682C4.16578 5.03577 5.02473 4.17682 6.08579 4.17682C7.14684 4.17682 8.00578 5.03577 8.00578 6.09682C8.00578 7.15788 7.14684 8.01682 6.08579 8.01682Z" fill="#010B24"/>
</svg>
