<svg width="16" height="16" fill="none" xmlns="http://www.w3.org/2000/svg"><path d="M13.094 16l-.705-.01-.203-.038c-.16-.03-.33-.06-.492-.1-.926-.231-1.85-.657-2.912-1.336-1.3-.835-2.582-1.902-4.033-3.36A24.439 24.439 0 011.675 7.51C.91 6.37.45 5.43.184 4.445a7.003 7.003 0 01-.126-.586L.01 3.616l-.01-.1v-.57l.038-.093C.32 2.172.8 1.69 1.27 1.257c.343-.32.704-.611 1.044-.882a1.658 1.658 0 011.475-.32c.33.079.617.282.8.568l.438.66c.458.698.93 1.418 1.41 2.114a1.689 1.689 0 01.136 1.76c-.085.187-.183.36-.277.527l-.12.216c-.09.16-.178.32-.27.48l.3.36c.27.32.552.664.84.974.79.869 1.65 1.671 2.572 2.4a41.96 41.96 0 011.083-.607A1.803 1.803 0 0112 9.282c.158.036.309.1.445.188.99.652 1.979 1.306 2.965 1.963.515.344.721 1.045.505 1.707a1.573 1.573 0 01-.217.443 9.57 9.57 0 01-1.82 1.937 3.331 3.331 0 01-.48.3l-.179.1-.125.08zm-.558-1.025h.285l.086-.047c.119-.06.232-.13.34-.208a8.598 8.598 0 001.62-1.743.604.604 0 00.07-.16.488.488 0 00-.099-.533c-.984-.656-1.97-1.308-2.958-1.958a.357.357 0 00-.11-.046.814.814 0 00-.584.122c-.43.231-.816.449-1.18.663a.75.75 0 01-.886-.05 22.195 22.195 0 01-2.822-2.608c-.31-.331-.599-.68-.879-1.018-.149-.174-.299-.347-.44-.52a.686.686 0 01-.062-.842c.126-.208.243-.42.36-.63l.125-.221c.088-.16.17-.301.235-.447a.673.673 0 00-.047-.75c-.48-.705-.96-1.432-1.422-2.132l-.427-.656a.291.291 0 00-.194-.134.64.64 0 00-.592.118c-.32.26-.67.54-.989.835-.377.347-.732.697-.94 1.142v.31l.04.207c.033.179.065.347.108.507.234.865.652 1.716 1.352 2.76a23.461 23.461 0 002.95 3.496c1.404 1.41 2.625 2.425 3.862 3.22.96.619 1.792 1.001 2.604 1.204.141.036.285.061.43.087l.164.032z" fill="#989898"/></svg>